/* XPM */
static char *b5d21a42eec54b43e365fbea0635f823PmsQGIZM2btM2WVF[] = {
/* columns rows colors chars-per-pixel */
"50 46 240 2 ",
"   c None",
".  c #766B1B",
"X  c #797328",
"o  c #767536",
"O  c #6E6D2E",
"+  c #9D7B0B",
"@  c #9B760B",
"#  c #886B16",
"$  c #8D7314",
"%  c #8A761B",
"&  c #9C7C14",
"*  c #937B1D",
"=  c #9D7C1A",
"-  c #967716",
";  c #AB7702",
":  c #A47B03",
">  c #AC7C02",
",  c #A5740B",
"<  c #A47B0C",
"1  c #AA7B0C",
"2  c #A77609",
"3  c #B27D01",
"4  c #B57B05",
"5  c #A37414",
"6  c #A37B13",
"7  c #AC7C12",
"8  c #A27C1B",
"9  c #A9791A",
"0  c #B17B14",
"q  c #886F25",
"w  c #8B7A23",
"e  c #85792D",
"r  c #887929",
"t  c #937D24",
"y  c #927E2A",
"u  c #9F7A21",
"i  c #877B35",
"p  c #A47923",
"a  c #977D4C",
"s  c #9B8216",
"d  c #AC8101",
"f  c #AC820B",
"g  c #A48105",
"h  c #BE8C00",
"j  c #B48208",
"k  c #A58015",
"l  c #AC8314",
"z  c #A6821C",
"x  c #AB801A",
"c  c #B48D16",
"v  c #B58518",
"b  c #988127",
"n  c #948232",
"m  c #A9862C",
"M  c #B78D23",
"N  c #BA972A",
"B  c #A48635",
"V  c #A58835",
"C  c #BD9C35",
"Z  c #C78D00",
"A  c #C49303",
"S  c #CB9301",
"D  c #CB9707",
"F  c #D29502",
"G  c #D59A07",
"H  c #D59D16",
"J  c #D28E00",
"K  c #D6A102",
"L  c #DFA401",
"P  c #D9A50D",
"I  c #CFA21C",
"U  c #D4A313",
"Y  c #D6A31B",
"T  c #E3A503",
"R  c #E9AC0D",
"E  c #E4A60E",
"W  c #EFB50B",
"Q  c #EFB909",
"!  c #F5B604",
"~  c #F9B505",
"^  c #F5B906",
"/  c #FBBB03",
"(  c #F4B40B",
")  c #FAB60A",
"_  c #F7BA0C",
"`  c #E3AE12",
"'  c #E8AE19",
"]  c #EAB112",
"[  c #ECB915",
"{  c #E3B61D",
"}  c #ECB41A",
"|  c #EEBA1C",
" . c #E6B517",
".. c #F3B514",
"X. c #F5BA12",
"o. c #FAB915",
"O. c #F3B61B",
"+. c #F4BB1C",
"@. c #FABB1B",
"#. c #F9B517",
"$. c #F2AA08",
"%. c #CA9B2C",
"&. c #C79927",
"*. c #C69C37",
"=. c #DA9C21",
"-. c #CBA32C",
";. c #CEA925",
":. c #D7A728",
">. c #CBA539",
",. c #D5A737",
"<. c #D9B538",
"1. c #ECB522",
"2. c #EDBB22",
"3. c #E5B52A",
"4. c #E6B92D",
"5. c #E8BA28",
"6. c #F3B520",
"7. c #F3BC24",
"8. c #F3BC2B",
"9. c #FABB27",
"0. c #ECBC3B",
"q. c #E6B838",
"w. c #F4BD37",
"e. c #E0AF38",
"r. c #F8C21D",
"t. c #F3C42A",
"y. c #F7C327",
"u. c #EEC53B",
"i. c #E8C134",
"p. c #F3C336",
"a. c #F4CA36",
"s. c #F3C23A",
"d. c #FBC63C",
"f. c #F4C93C",
"g. c #FCCC3C",
"h. c #F8C233",
"j. c #FED13D",
"k. c #96814A",
"l. c #BA9A45",
"z. c #B39651",
"x. c #AE9E6B",
"c. c #BCA768",
"v. c #B5A371",
"b. c #C29C55",
"n. c #C9A648",
"m. c #D5AA46",
"M. c #DAB545",
"N. c #DAB64C",
"B. c #C3A55D",
"V. c #D9B357",
"C. c #CAAD56",
"Z. c #E3B945",
"A. c #E3BB4A",
"S. c #E5B547",
"D. c #E7BA53",
"F. c #F0BF59",
"G. c #C5A96B",
"H. c #C4AD74",
"J. c #D7B677",
"K. c #E1BD70",
"L. c #ECC149",
"P. c #F4C241",
"I. c #F2CB44",
"U. c #FDCA42",
"Y. c #F6C849",
"T. c #FBD34D",
"R. c #F9D342",
"E. c #ECCA5C",
"W. c #E8C456",
"Q. c #FACE54",
"!. c #F5CE5C",
"~. c #F7CC59",
"^. c #FED455",
"/. c #FFD854",
"(. c #FED45C",
"). c #FDDA5B",
"_. c #F4D159",
"`. c #FFE159",
"'. c #DEC467",
"]. c #DAC17E",
"[. c #DCC076",
"{. c #EBC867",
"}. c #F1CD65",
"|. c #F3CB6A",
" X c #FDD563",
".X c #FEDA64",
"XX c #FDD56C",
"oX c #FEDA6B",
"OX c #F6D567",
"+X c #EACB74",
"@X c #FCD673",
"#X c #FCD974",
"$X c #FDD67C",
"%X c #FDDA79",
"&X c #F4D37A",
"*X c #F0CF6D",
"=X c #FFE16B",
"-X c #FFE065",
";X c #FCE274",
":X c #C7B483",
">X c #CEB685",
",X c #D8C081",
"<X c #DCC89C",
"1X c #F5DB8B",
"2X c #F7DB85",
"3X c #E8D29B",
"4X c #F5DC92",
"5X c #F8DD98",
"6X c #E8CF91",
"7X c #FBE698",
"8X c #F7E18E",
"9X c #EDDCAC",
"0X c #EAD7A4",
"qX c #F4DFAA",
"wX c #F7DEA3",
"eX c #E8DABC",
"rX c #FFE9A4",
"tX c #F3E2AA",
"yX c #F9E7A8",
"uX c #FFF7AC",
"iX c #FAECB4",
"pX c #FFF8BB",
"aX c #FFF7B7",
"sX c #EEDFC8",
"dX c #FAECC8",
"fX c #FEF4C4",
"gX c #FFFAC2",
"hX c #FDF5CC",
"jX c #FFFAC9",
"kX c #FEFBD3",
"lX c #FFFCDA",
"zX c #FDF3D1",
"xX c #EDE4C5",
"cX c #FFFEE4",
"vX c #FFFEED",
"bX c #FFF7E2",
"nX c #F5FFF3",
"mX c #FEFEF3",
"MX c #FEFEFD",
"NX c #FAFAF8",
/* pixels */
"                                # 8 6 : ; ; d : : f ; 4 ; ; 4 , q                                   ",
"                          o O . $ 8 < : > > d : < l 2 2 f 1 ; 7 * . . O                             ",
"                        o n - + 5 *.N.N.M.<.M.N.N.V.N.N.N.>.1 1 + s * w o                           ",
"                        % z : : 7 M.oX=X).(.oXXXXXXX.X.X.XZ.l < : f + = w                           ",
"                    X * - C ,.<.,.q.U.g.a.g.U.d.U.d.g.a.f.u.<.>.,.%.> < z t e                       ",
"                    - 7 k M. X(./.h.7.} } 2.1.1.6.} [ [ [ t.T..XoXA.v 1 2 & % .                     ",
"                  * 6 %.>.E.oX^.g.@.) T F D D D D F F L ( X.h.T.#X|.A.*.7 < 6 * X                   ",
"                t 6 1 D.@X#X.XU...o.o.G 3 3 > ; ; 3 ; F o.X.O.8.(.XX#XW.M 1 2 6 t                   ",
"              t < &.m.{.#X(.g.y...R G I ,.*.n.*.>.,.:.H H K ..+.g.I..X!.m.*.7 7 5 y i               ",
"            r 5 4 S.@X%X Xs.7.] O.S d ;.!.XX$X$X@XXXoXe.; h O...[ t./.-XXXD.v 1 7 8 i               ",
"            t < : Z.oX~.w.9.+.` G I ;.<.I.^.oX#X%XXX^.0.;.I G T ( @.t.I.=XE.v l 2 6 w               ",
"            $ + z N. XP.6.@.R S ; e./.f.{ a.)..XXXE.<.u.`.0.3 S ) o.| i.).W.l : : + -               ",
"          % * n.C.'.OXs...$.G Y &.0.g.y.Q r.j.).oXOXI.f.U.w.S F G E } 8.^._.>.N f : & w o           ",
"        n & m 1XaXyX%XP.R J 4 :.(.P.6.X.^ Q [ p.)..X).I.3.8.} E 4 Z ` 2.T.oXXXE.c g < b i           ",
"        * @ m 5XlXdX8XW.| S ; ,.).p.[ ^ ^ / ) r.g.^.oX!.f.t.[ K 3 h  .y.^.oX$X|.c d : 8 i           ",
"        * 6 m wXcXcXuXE.{ S ; ,..Xu.| Q ^ / ~ ~ @.h..XoXT.a.t.U d h ` t.^.XX$X|.c d ; 6 e           ",
"        t & V wXvXvXgX*X{ S ; ,.XX~.s.7._ / / ! ^ r.g./.).Q.Y.:.> h ] 7.(.@X$X|.c > > 6 e           ",
"        t & B tXmXmXjX*X{ S ; m.%X#X(.d.O.! / / ! Q | a./..XoXA.> h ] 7.(.#X%X}.c > ; 6 e           ",
"        t = B qXmXmXjX*X1.S > V.5X2X@XQ.8.] ^ ! / ! ..y.U./..XZ.> h ] 7.(.#X%X}.c > > 6 e           ",
"        t = B qXmXmXjX*X3.A 2 K.pXyX1X%X(.h.+.! ! ! _ +.7.f./.q.> h ] 7.(.#X%X}.c > > 6 e           ",
"        y = B qXvXmXfX*X3.A < K.kXdXtX4X#XQ.h.O.( ~ ) ( ] 2.j.4.> h ] 7.(.#X%X}.c > > 6 e           ",
"        y = B qXvXvXfX*X4.A 6 K.cXvXlXiX1X%X^.g.#.) ) ) ( [ y.P 3 h ] 7.(.#X%X}.c > > 6 e           ",
"        y = B wXcXcXfX*X4.A 6 >XbXMXvXzXtX1X#XQ.8.@.( ~ _ _ X.K 3 h ] 7.(.#X%X}.c > > 6 e           ",
"        y = V 7XlXlXaX{.4.A 6 ,XvXMXMXvXkXyX1XOX(.g.@.( ) ! _ L 3 h ] 7.(.#X%X}.c > > 6 e           ",
"        w = m 6XfXkXaX}.3.D k ,XvXMXMXmXcXhXtX1X%XQ.h.9.( ! / L 3 h ] 7.(.#X%X}.c > > 6 e           ",
"        t 6 m +XyXaXuX}.3.A 6 ].cXMXMXMXmXcXhXiX2X#X(.g.O.X._ T 3 h ] 7.(.#X%X}.c > > 6 e           ",
"        t 6 z '.4XrX7X~.1.A 6 ].cXMXMXMXMXmXcXkXqX8X%XQ.w.+...T 3 h ] 7.(.#X%X}.c > > 6 e           ",
"        t 6 l W.2X1X%XL.1.S 6 ].cXMXMXMXMXMXmXcXkXiX4X%X(.U.7.P 3 h ] 7.(.#X%X}.c > > 6 e           ",
"        t < l W.2X$XXX0.1.D 6 ].cXMXMXMXMXMXMXmXcXhX9X4X%X~.0.U 3 h ] 7.(.#X%X}.c > > 6 e           ",
"        * < f W.%X@X Xw.O.S 6 ].cXMXMXMXMXMXMXMXMXvXzXyX2X%X(.q.> h ] 7.(.#X%X}.c > > 6 e           ",
"        * 2 f L.#X#X.Xw.O.S 6 ].cXMXMXMXMXMXMXMXMXmXcXfX5X2X#XA.> h ] 7.(.#X%X}.c > > 6 e           ",
"        t 1 f L.%X#X(.w.O.S 2 [.cXMXMXMXMXMXMXMXMXMXmXcXfXrX2XM.> Z ] 7.(.#X%X}.c > 1 8 e           ",
"        t 7 0 D.%X|.(.h.} S > {.jXcXMXMXMXMXmXMXMXMXMXmXcXgX2XA.d Z R 7.Q.#X%X{.l 1 7 p i           ",
"          $ @ *.*.{..Xp.| ` U -.z.0XvXMXNXMXmXMXMXMXNXmXcX9Xz.*.I ' } 7..X|.*.N f > 6               ",
"            $ & 6 D.(.i.2.[ 7.H l +XhXvXMXnXNXMXMXMXMXvXkX3Xz.l.Z.i.5.u. XD.7 < : : %               ",
"              = x A.=X^.R.t.O.' :.%.z.<XcXmXnXnXmXvXmXeXx.H.3X5X7X;X_.(.XX!.v ; ; g w               ",
"              8 7 S.XX.X).u.9.#.+.A f V.pXkXlXkXkXjXhX<Xk.v.lXcXlXgX7X2X&XF.4 ; ; k                 ",
"              w @ %.>.E.=XQ.U.9.] R Y -.n.B.c.c.c.G.v.>X<XeXvXmXvXcXjXrXC.&.; ; < %                 ",
"                $ 1 1 A.OX.X.XP.+.X.} H 4 0 9 z m y a :XbXmXmXMXMXvXjX4XM : f + t                   ",
"                  $ 6 &.N W.oX^.j.+.O.O.H =.:.Z.$X6X9XdXmXmXmXmXmXsXH.l.l + s w                     ",
"                    = < 6 M. X(.^.p.8.7.7.1.4.oXaXkXcXcXmXvXlXlXlX0Xm + + s e                       ",
"                      - - N %.&.&.e.Y.U.g.j.Y.XXrXfXcXcXcXxX:XH.G.b.6 + s w                         ",
"                        q u 5 < l <.XX X^.). XOX&X7XjXkXkX0XB p 9 9 6 & t                           ",
"                          i w b - N >.*.%.-.*.*.C l.B.G.H.b.= 5 9 8 t r                             ",
"                                  = 6 < 1 1 5 6 < : , 5 9 p 9 8 %                                   ",
"                                  - @ : 2 , 5 5 : > ; 4 , , 7 @ w                                   "
};
