/* XPM */
static char *f4192d73d6d84252942e3d6acaf333f6hlospGLASFmJa28Q[] = {
/* columns rows colors chars-per-pixel */
"57 63 214 2 ",
"   c None",
".  c #1C181B",
"X  c #191618",
"o  c #221D1D",
"O  c #2C261D",
"+  c #2C2523",
"@  c #3B3227",
"#  c #56090B",
"$  c #5C0B0D",
"%  c #590608",
"&  c #4E1E13",
"*  c #581915",
"=  c #630609",
"-  c #660A0B",
";  c #6B0C0D",
":  c #6E0608",
">  c #7B0708",
",  c #74080A",
"<  c #630E12",
"1  c #720F11",
"2  c #621011",
"3  c #542316",
"4  c #552519",
"5  c #5B2B1D",
"6  c #5F311F",
"7  c #7E2419",
"8  c #4B1F21",
"9  c #5E2E31",
"0  c #5B3333",
"q  c #4E2D29",
"w  c #6B3C27",
"e  c #64393B",
"r  c #4A4238",
"t  c #5C5038",
"y  c #75482C",
"u  c #62543B",
"i  c #6F422A",
"p  c #525052",
"a  c #6A4546",
"s  c #6F484A",
"d  c #714D4E",
"f  c #714F51",
"g  c #765354",
"h  c #7C5B5C",
"j  c #795658",
"k  c #635A4A",
"l  c #76694C",
"z  c #8B0809",
"x  c #850809",
"c  c #930607",
"v  c #9A0607",
"b  c #9D0A0A",
"n  c #8E140F",
"m  c #95110E",
"M  c #8B1514",
"N  c #881B13",
"B  c #9D1413",
"V  c #951817",
"C  c #AB0606",
"Z  c #AB0C0C",
"A  c #A50A0A",
"S  c #B30506",
"D  c #BD0505",
"F  c #BA090A",
"G  c #B70A0A",
"H  c #A91516",
"J  c #B7181A",
"K  c #822419",
"L  c #852A1C",
"P  c #873A27",
"I  c #CB0505",
"U  c #C40708",
"Y  c #C8090A",
"T  c #D40405",
"R  c #DB0505",
"E  c #D90B0B",
"W  c #C61717",
"Q  c #DF1414",
"!  c #D51D1D",
"~  c #DA1B1B",
"^  c #DA1616",
"/  c #EC0303",
"(  c #EC0D0C",
")  c #E50707",
"_  c #F50505",
"`  c #FC0100",
"'  c #F40708",
"]  c #F30A0A",
"[  c #F80909",
"{  c #F50806",
"}  c #E9100F",
"|  c #EA0F10",
" . c #E41414",
".. c #EA1111",
"X. c #E01718",
"o. c #F41413",
"O. c #F51A1A",
"+. c #D32121",
"@. c #F32D2C",
"#. c #F32323",
"$. c #F33535",
"%. c #F33C3C",
"&. c #F13837",
"*. c #E93839",
"=. c #89442D",
"-. c #865839",
";. c #955938",
":. c #965838",
">. c #854E32",
",. c #99603C",
"<. c #EB3F40",
"1. c #9B6C45",
"2. c #946843",
"3. c #917F53",
"4. c #8E7C52",
"5. c #A5764C",
"6. c #AA7E50",
"7. c #A26F46",
"8. c #826163",
"9. c #866769",
"0. c #D04F4F",
"q. c #F24D4C",
"w. c #F24343",
"e. c #F25352",
"r. c #F25C5B",
"t. c #F3605F",
"y. c #D57A78",
"u. c #F26563",
"i. c #F46B6B",
"p. c #F26867",
"a. c #F37574",
"s. c #F47B7B",
"d. c #E07574",
"f. c #968358",
"g. c #AF8555",
"h. c #B68B59",
"j. c #B28454",
"k. c #A8935E",
"l. c #AA9460",
"z. c #C39B62",
"x. c #C09660",
"c. c #CAA366",
"v. c #C3A96C",
"b. c #CEA969",
"n. c #D3AD6D",
"m. c #D6B06F",
"M. c #D9B471",
"N. c #D5BB75",
"B. c #D4B575",
"V. c #C9B16E",
"C. c #E0BA75",
"Z. c #DCC27C",
"A. c #E5C47A",
"S. c #E6C97E",
"D. c #EBCB7E",
"F. c #F1CD7F",
"G. c #EED17F",
"H. c #A48B8C",
"J. c #AC9697",
"K. c #BFB294",
"L. c #BFB1B1",
"P. c #B9A6A6",
"I. c #F48D8D",
"U. c #F28280",
"Y. c #F3908D",
"T. c #F59595",
"R. c #F59E9D",
"E. c #D2BF92",
"W. c #C4B282",
"Q. c #F5A19F",
"!. c #C4BBA6",
"~. c #C4B4B4",
"^. c #F5A5A4",
"/. c #F8ABAB",
"(. c #F7BBBA",
"). c #F8B8B7",
"_. c #DBC691",
"`. c #EBCD84",
"'. c #EED181",
"]. c #F4D484",
"[. c #F7D885",
"{. c #FADA84",
"}. c #FAD885",
"|. c #E1CC97",
" X c #D5CBB6",
".X c #CDC8BA",
"XX c #F8C1BF",
"oX c #E0D3B2",
"OX c #DCD2D2",
"+X c #D3CDC8",
"@X c #F7C3C3",
"#X c #F9CCCC",
"$X c #F9C2C2",
"%X c #FAD0CF",
"&X c #FAD3D2",
"*X c #FADBDA",
"=X c #F9D8D7",
"-X c #EBD6D6",
";X c #ECE9E9",
":X c #ECE7E6",
">X c #FBE3E3",
",X c #FCECEB",
"<X c #F8EAE9",
"1X c #F6F3F3",
"2X c #FDF6F6",
"3X c #FBF5F5",
"4X c #FBF9F7",
"5X c #FDFFFF",
"6X c #FDFEFE",
"7X c #FEFEFE",
"8X c #FEFFFF",
"9X c #FFFFFF",
"0X c #FDFEFD",
"qX c #FEFEFE",
/* pixels */
"                                                                                                                  ",
"                                                                                                                  ",
"                                                                                                                  ",
"                                                                                                                  ",
"                                                                                                                  ",
"                                                                                                                  ",
"                                              * 1 x c v b b v c z 1 <                                             ",
"                                        2 x C I Q *.p.I.R.R.I.i.<. .T S z ;                                       ",
"                                    ; v I / o.r.).,X0X5X5X5X5X5X,XXXi.O._ R C ,                                   ",
"                                $ v R ` ` &.).2X5X5X5X5X5X5X5X5X5X5X4X$Xq._ ` ) C :                               ",
"                              > I _ ` _ e.*X5X5X5X5X5X5X5X5X5X5X5X5X5X5X>Xp._ ` ` R c #                           ",
"                          # v / ` ` ` q.>X5X5X5X5X5X5X5X5X5X5X5X5X5X5X5X5X,Xp.` ` ` _ S =                         ",
"                        % S _ ` ` ` @.&X5X5X5X5X5X5X5X5X5X5X5X5X5X5X5X5X5X5X>Xw.` ` ` ` I :                       ",
"                      - D ` ` ` ` [ R.5X5X5X5X5X5X5X5X5X5X5X5X5X5X5X5X5X5X5X5X(.o.` ` ` ` T >                     ",
"                    = D ` ` ` ` ` w.,X5X5X5X5X5X5X5X5X5X5X5X5X5X5X5X5X5X5X5X5X2Xr.` ` ` ` ` T ,                   ",
"                  # S ` ` ` ` ` _ T.5X5X5X5X5X5X5X5X5X5X5X5X5X5X5X5X5X5X5X5X5X5X/.[ ` ` ` ` ` T -                 ",
"                  C _ ` ` ` ` ` O.#X5X5X5X5X5X5X5X5X5X5X5X5X5X5X5X5X5X5X5X5X5X5X>X@.` ` ` ` ` ` D #               ",
"                x / ` ` ` ` ` ` &.,X5X5X5X5X5X5X5X5X5X5X5X5X5X5X5X5X5X5X5X5X5X5X2Xe.` ` ` ` ` ` _ V               ",
"              e 0.` ` ` ` ` ` ` q.2X5X5X5X5X5X5X5X5X5X5X5X5X5X5X5X5X5X5X5X5X5X5X5Xi.` ` ` ` ` ` _ d.f             ",
"              J./.[ ` ` ` ` ` ` r.4X5X5X5X5X5X5X5X5X5X5X5X5X5X5X5X5X5X5X5X5X5X5X5Xa.` ` ` ` ` ` _ /.L.8           ",
"            g ;X=XO.` ` ` ` ` ` e.4X5X5X5X5X5X5X5X5X5X5X5X5X5X5X5X5X5X5X5X5X5X5X5Xa.` ` ` ` ` ` ] ).1X8.          ",
"            P.5X,X&.` ` ` ` ` ` %.,X5X5X5X5X5X5X5X5X5X5X5X5X5X5X5X5X5X5X5X5X5X5X4Xr.` ` ` ` ` ` o.@X5X~.8         ",
"          d ;X5X2Xe.` ` ` ` ` ` #.=X5X5X5X5X5X5X5X5X5X5X5X5X5X5X5X5X5X5X5X5X5X5X,X&.` ` ` ` ` ` o.#X5X1Xj         ",
"          J.5X5X0Xu.` ` ` ` ` ` [ ^.5X5X5X5X5X5X5X5X5X5X5X5X5X5X5X5X5X5X5X5X5X5XXXo.` ` ` ` ` ` O.#X5X5XJ.        ",
"        0 OX5X5X5Xp.` ` ` ` ` ` ` r.2X5X5X5X5X5X5X5X5X5X5X5X5X5X5X5X5X5X5X5X5X5Xa.` ` ` ` ` ` ` O.#X5X5XOX0       ",
"        h 1X5X5X4Xt.` ` ` ` ` ` ` o.(.5X0X5X5X5X5X5X5X5X5X5X5X5X5X5X5X5X5X5X5X&X#.` ` ` ` ` ` ` o.#X5X5X1Xh       ",
"        H.5X5X5X2Xq.` ` ` ` ` ` ` ` q.,X5X5X5X5X5X5X5X5X5X5X5X5X5X5X5X5X5X5X3Xu.` ` ` ` ` ` ` ` ] (.5X5X5XH.      ",
"        ~.5X5X5X<X$.` ` ` ` ` ` ` ` _ a.3X5X5X5X5X5X5X5X5X5X5X5X5X5X5X5X5X4XY.[ ` ` ` ` ` ` ` ` [ /.5X5X5X~.      ",
"      0 OX5X5X5X#Xo.` ` ` ` ` ` ` ` ` ] U.3X5X5X5X5X5X5X5X5X5X5X5X5X5X5X2XT.o.` ` ` ` ` ` ` ` ` ` I.5X5X5XOX0     ",
"      a :X5X5X5XT._ ` ` ` ` ` ` ` ` ` ` [ p.*X5X5X5X5X5X5X5X5X5X5X5X5X>Xs.o.` ` ` ` ` ` ` ` ` ` ` p.0X5X5X:Xa     ",
"      j 1X5X5X3Xq.` ` ` ` ` ` ` ` ` ` ` ` _ $.T.>X5X5X5X5X5X5X5X0X<X^.%._ ` ` ` ` ` ` ` ` ` ` ` ` %.,X5X5X1Xg     ",
"      8.4X5X5X(.o.` ` ` ` ` ` ` ` ` ` ` ` ` ` _ @.i.^.XX%X#X@X^.a.&.[ ` ` ` ` ` ` ` ` ` ` ` ` ` ` o.@X5X5X4Xh     ",
"      9.4X5X2Xr.` ` ` ` ` ` ` ` ` ` ` ` ` ` ` ` ` ` _ o.O.O.o._ ` ` ` ` ` ` ` ` ` ` ` ` ` ` ` ` ` ` s.5X5X4X8.    ",
"      8.4X5X/.o.` ` ` ` ` ` ` ` ` ` ` ` ` ` ` ` ` ` ` ` ` ` ` ` ` ` ` ` ` ` ` ` ` ` ` ` ` ` ` ` ` ` @.*X5X4X8.    ",
"      j 1X*X&.` ` ` ` ` ` ` ` ` ` ` ` ` ` ` ` ` ` ` ` ` ` ` ` ` ` ` ` ` ` ` ` ` ` ` ` ` ` ` ` ` ` ` _ a.4X1Xj     ",
"      a -Xu.` ` ` ` ` ` ` ` ` ` ` ` ` ` ` _ _ ' ' ' ( ( ( ( ( ( ( ( ( ' _ _ ` ` ` ` ` ` ` ` ` ` ` ` ` o.Q.:Xs     ",
"      9 0.[ ` ` ` ` ` ` ` ` ` ` ` _ _ ' ( ( ( ( ( } ........ . . . . . . . ...| ( _ ` ` ` ` ` ` ` ` ` ` O.y.9     ",
"        S ` ` ` ` ` ` ` ` ` _ _ ' ' ( ( ( ( ( E Y F Z A A B A Z G W ^ Q  .X.~ ~ ~ Q ..( _ ` ` ` ` ` ` ` ` J       ",
"        z _ ` ` ` ` ` ` _ _ ' ' ' ' ] ( Y Z n L =.:.5.j.h.h.j.5.,.=.L M H W ~ ~ ~ ~ ~ ~ ~ ..' ` ` ` ` ` } M       ",
"        < I ` ` ` ` _ _ ' ' ' ' ' ) F n P 7.c.A.].{.{.{.{.{.{.{.{.].A.c.7.P M H ! ~ ~ ~ ~ ! ~ .._ ` _ ..W 2       ",
"          z ' _ ` _ _ ' { ' ' ( F N :.c.'.{.{.A.S.{.{.{.{.{.{.{.{.'.Z.].{.D.z.;.K B W ~ ~ ~ ! ! ~ .. .+.M         ",
"          # S _ _ _ _ ' ' [ E m ;.n.].{.{.{.`..XK.'.{.{.{.{.{.{.{.W..X_.{.{.{.[.M.1.7 H ! ~ ~ ! ! ! +.H $         ",
"            - U _ _ _ _ ' Y K h.].{.{.{.{.{.|.4X+XZ.{.{.{.{.{.{.G.!.5XoX[.{.{.{.{.{.n.=.B ! ~ ! ! ! J ;           ",
"              : U _ _ _ R K b.{.{.{.{.{.{.{.E.;X+XB.{.{.{.{.{.{.D.!.4X X].{.{.{.{.{.{.A.=.J ~ ! ! J 1             ",
"                = C ) { U ;.{.{.{.{.{.{.{.{.f.p r v.{.{.{.{.{.{.S.k p l '.{.{.{.{.{.{.{.6.B ~ ! H ;               ",
"                    z U D :.[.{.{.{.{.{.{.{.4.. + v.{.{.{.{.{.{.S.q X t '.{.{.{.{.{.{.{.h.V J M                   ",
"                        : >.].{.{.{.{.{.{.{.f.o + v.{.{.{.{.{.{.D.r . u ].{.{.{.{.{.{.{.h.$ -                     ",
"                          i D.{.{.{.{.{.{.{.l.o @ N.{.{.{.{.{.{.].t . l [.{.{.{.{.{.{.{.5.                        ",
"                          4 n.{.{.{.{.{.{.{.N.@ u '.{.{.{.{.{.{.{.f.O k.{.{.{.{.{.{.{.].-.                        ",
"                            5.{.{.{.{.{.{.{.].V.N.{.{.{.{.{.{.{.{.D.v.G.{.{.{.{.{.{.{.M.5                         ",
"                            w C.{.{.{.{.{.{.{.{.{.{.{.{.{.{.{.{.{.{.{.{.{.{.{.{.{.{.[.1.                          ",
"                              -.F.{.{.{.{.{.{.{.{.{.{.{.{.{.{.{.{.{.{.{.{.{.{.{.{.{.x.3                           ",
"                                2.D.{.{.{.{.{.{.{.{.{.{.{.{.{.{.{.{.{.{.{.{.{.{.{.x.6                             ",
"                                  >.n.[.{.{.{.{.{.{.{.{.{.{.{.{.{.{.{.{.{.{.{.A.5.4                               ",
"                                    5 2.c.D.{.{.{.{.{.{.{.{.{.{.{.{.{.{.F.m.6.w                                   ",
"                                        & i 2.g.z.n.M.M.M.n.n.n.c.x.g.1.y 4                                       ",
"                                                  & 3 3 3 3 3 &                                                   ",
"                                                                                                                  ",
"                                                                                                                  ",
"                                                                                                                  ",
"                                                                                                                  ",
"                                                                                                                  ",
"                                                                                                                  "
};
