/* XPM */
static char *b3baf8c34cf24aa7b6111408f6356744l2fkSjsB7WIGL4on[] = {
/* columns rows colors chars-per-pixel */
"50 64 230 2 ",
"   c None",
".  c #050203",
"X  c #0B0402",
"o  c #0B0A05",
"O  c #0A0709",
"+  c #0C0C0B",
"@  c #05070B",
"#  c #140402",
"$  c #150B05",
"%  c #1C0C03",
"&  c #130D0A",
"*  c #1D0907",
"=  c #19140C",
"-  c #060B15",
";  c #181819",
":  c #0D1015",
">  c #260806",
",  c #3A0607",
"<  c #2D1B0B",
"1  c #291808",
"2  c #351D0B",
"3  c #3B1C0B",
"4  c #391B07",
"5  c #271C16",
"6  c #321B11",
"7  c #1F240E",
"8  c #292008",
"9  c #3C290B",
"0  c #2A2519",
"q  c #3A2717",
"w  c #051329",
"e  c #171826",
"r  c #071B37",
"t  c #0F162B",
"y  c #09243C",
"u  c #09263E",
"i  c #162A3B",
"p  c #1F202A",
"a  c #262728",
"s  c #322C24",
"d  c #3F3527",
"f  c #312E35",
"g  c #341125",
"h  c #450606",
"j  c #590809",
"k  c #441D07",
"l  c #640604",
"z  c #6A0708",
"x  c #790507",
"c  c #690D13",
"v  c #721611",
"b  c #4D2505",
"n  c #44240A",
"m  c #4C2509",
"M  c #462808",
"N  c #512305",
"B  c #502A09",
"V  c #463309",
"C  c #4C330B",
"Z  c #4B3406",
"A  c #482510",
"S  c #513614",
"D  c #551B22",
"F  c #4B3D2C",
"G  c #493927",
"H  c #493D32",
"J  c #4F3031",
"K  c #76380D",
"L  c #4A4811",
"P  c #55422C",
"I  c #574736",
"U  c #4D4030",
"Y  c #644C37",
"T  c #67543A",
"R  c #0D2A43",
"E  c #0B2C4C",
"W  c #092445",
"Q  c #142C48",
"!  c #163247",
"~  c #0E3357",
"^  c #173B5A",
"/  c #0F2D50",
"(  c #242C47",
")  c #2E3D54",
"_  c #293548",
"`  c #0B3966",
"'  c #163D66",
"]  c #103D70",
"[  c #343D68",
"{  c #453C51",
"}  c #2D435C",
"|  c #1B456B",
" . c #184877",
".. c #0B4076",
"X. c #224364",
"o. c #2F4F6B",
"O. c #474646",
"+. c #5A4C48",
"@. c #655847",
"#. c #744F44",
"$. c #7A664B",
"%. c #786752",
"&. c #434161",
"*. c #655F64",
"=. c #576671",
"-. c #6A6969",
";. c #777577",
":. c #656D70",
">. c #860909",
",. c #9A1618",
"<. c #8F0D11",
"1. c #A90809",
"2. c #B30707",
"3. c #A8140F",
"4. c #C80B0A",
"5. c #D40905",
"6. c #D70708",
"7. c #EB0805",
"8. c #E90706",
"9. c #F40403",
"0. c #FB0202",
"q. c #F50608",
"w. c #997B23",
"e. c #EB4C0F",
"r. c #92795A",
"t. c #846D53",
"y. c #957B61",
"u. c #8D7B60",
"i. c #B07C76",
"p. c #9D9928",
"a. c #CFB535",
"s. c #CECA30",
"d. c #F8F926",
"f. c #F1DD2E",
"g. c #A2845E",
"h. c #9C8566",
"j. c #A68968",
"k. c #B49C73",
"l. c #B59C7A",
"z. c #B69A79",
"x. c #AA8C72",
"c. c #BFA17C",
"v. c #C7A87B",
"b. c #D7AF7B",
"n. c #164E84",
"m. c #1B538C",
"M. c #1C598E",
"N. c #1C5381",
"B. c #1B5C94",
"V. c #235A8A",
"C. c #215E93",
"Z. c #1D689D",
"A. c #286698",
"S. c #346693",
"D. c #175FA1",
"F. c #1E65A6",
"G. c #1B69A8",
"H. c #1C71B9",
"J. c #2569A1",
"K. c #2677B8",
"L. c #2976B3",
"P. c #657186",
"I. c #1F77C1",
"U. c #237CC4",
"Y. c #217DCB",
"T. c #347EC1",
"R. c #9F7E82",
"E. c #3383BF",
"W. c #1F8AD9",
"Q. c #2B86CD",
"!. c #2882C7",
"~. c #2C8AD3",
"^. c #238BDB",
"/. c #2688D7",
"(. c #2C92DE",
"). c #1E98F8",
"_. c #1F92EC",
"`. c #258FE3",
"'. c #2591E3",
"]. c #2B94E5",
"[. c #2595EC",
"{. c #2994EB",
"}. c #2699ED",
"|. c #2396F3",
" X c #2399F3",
".X c #2797F3",
"XX c #949494",
"oX c #9B9A9A",
"OX c #86898D",
"+X c #B89E9A",
"@X c #BDA782",
"#X c #A0A09B",
"$X c #A7A9A7",
"%X c #BDBDBC",
"&X c #B0B3AC",
"*X c #D79B99",
"=X c #EA9192",
"-X c #CDB387",
";X c #DBBA8B",
":X c #D4B788",
">X c #D9BC93",
",X c #CCAA8D",
"<X c #E1B88C",
"1X c #C4BABA",
"2X c #F3A6AE",
"3X c #EAABAD",
"4X c #D9C197",
"5X c #EDCC95",
"6X c #EBCC9A",
"7X c #E6C796",
"8X c #F4CC94",
"9X c #F3CD9A",
"0X c #F6CB96",
"qX c #EFD199",
"wX c #F3D09A",
"eX c #F4D196",
"rX c #ECC98E",
"tX c #CFC4BF",
"yX c #F9CEA2",
"uX c #EED0A2",
"iX c #C7C8C8",
"pX c #D6D7D8",
"aX c #CED3D5",
"sX c #EDD3CC",
"dX c #DFE0DB",
"fX c #E9E6E6",
"gX c #FBEEEC",
"hX c #F4F5F4",
"jX c #FDFEFD",
"kX c #F6FBF8",
/* pixels */
"                                                                                                    ",
"                                                                                                    ",
"                                      - - - o + - :                                                 ",
"                                    ! E E E R R E E i                                               ",
"                                  R L.Q.Q.Q.^.^./.~.| w -                                           ",
"                                X.A.` E E ` U..X.X[.Y.H.A./                                         ",
"                              X. .S.=.-.-.=.S.H.[.)..X.X].M.^                                       ",
"                            w J.M.( pXgXgXfX:.| Q._.[.|.|.].C.u                                     ",
"                            - A.C.f tX2X2X3XsXOX~ W. X|.|.|./.G.y                                   ",
"                          + @ ^ / f *X*X=X*XsXoXr !.).|.).)..X`.B.^                                 ",
"                        ! R y W W ) R.x.*Xi.+X;.w Z.^.|.).|.|.).].| -                               ",
"                    - w M.^.^././.K.Q e p e e t - r B.(.'.{.|.|.]. .w                               ",
"                  } A.G./..X.X|.|.'.H.F.F.F.F.G.F.J. .~ ] Y..X.X[.Y.M.w                             ",
"                - ^ ]. X.X.X.X).).|..X}..X X X X.X{.D.` ] B.Y.[.{..XU.'                             ",
"                : X.Q.W.^./.^.`.^.^.^.W.^.^.^.`..X.X].'./.` n.^.{.[.{.Q.R +                         ",
"                  _ u u W u u u y u u y u u u N.(.[.[..X[.!.m.` /..X X^.R &                         ",
"                      ; ; ; %.t.%.%.$.t.$.$.%.=.|  . .F.{.}.I.n.m.Y..X^.E +                         ",
"                        : d 4X;X;XeXeX9X9X9X>Xu.q s s } K.'.)./.` B.Q.^...u Q                       ",
"                        + d >XY $.7X9X9X8X7XY @.;X;X>Xx.i K.].'.!. ...`././.L.r                     ",
"                        . = I 5 5 $.<X9X8X7XH @.6X8X8X;Xh.o.^ ^ | m.K.{.}..X_.G.^                   ",
"                      I H H F F F I g.:X8X7XH +.6X8X8X8X7XH . & : X.A.A.J.U.|.].' .                 ",
"                    d -X7X7X7X7X6X-XS h.9X7XY #.6X8X0X8X<XG = V 9 0 ; ; e N.^.~.' @                 ",
"                = @.@XrX8X9X0X8X0X0Xv.;X9X8Xb.b.8X0X9Xv.F 9 9 V 1 $.@Xv.@X:.R R !                   ",
"                X @.uX8X0X9X0X5X6X0XwX9X9X9X0X8X6X0X9Xk.& 9 C n $ h.>Xg.>Xc.T &                     ",
"                o @.-X6X9X8X0X8X9X5X:X-X-X-X-X-X:X0X8Xk.& 8 M q q x.l.5 l.wXb.=                     ",
"                    G -XwX8X0X8X8X:XG 5 5 5 0 5 G :XwXk.& X $ q v.7Xz.6 l.9Xv.=                     ",
"                      @.k.wX9XwXv.T 9 1 < < < & 5 -XwX<Xg.y.r.j.rXj.t.h.>XyX,X5                     ",
"                      $ %.l.k.z.$.1 M C C B C < 6 -X6X0X0X9X9XeX8Xr.$.6XqX;Xj.5                     ",
"                        5 = % > < V C V Z Z V 8 A :X8X8X6X6X9X5X7X>X4X7X7Xr.<                       ",
"                            . 1 9 Z Z Z V V 1 I c.rX0XeXwX9XwX;XT F U F P U                         ",
"                            + 8 8 < < < < q P h.qX9Xz.u.y.y.y.u.5 . . . .                           ",
"                              O X X . . # , x.:X:X:XI # > # . &                                     ",
"                                      % h ,.D 0 a 0 = h ,., . :                                     ",
"                                      v >.c [ m. .: j >.c [ m.V._                                   ",
"                                    j <.<.( K.~.S.D >.v ( K..X/.' )                                 ",
"                                  h ,.c ( !.(.C.g 3.z f E.{..X|.~.X.e                               ",
"                                c <.z &.U.'.n.J 1.6.l / '.|..X X].' ;                               ",
"                              c 1.6.>.{ A.V.e j 8.8.l / `. X!.A.V.i :                               ",
"                            k 3.7.0.6.c & 8 < v 5.8.x ( T./.A.i a a ; .                             ",
"                          L a.e.9.0.7.x V s.s.w.l 6.6.<.p r P.aXaXpXoX&                             ",
"                        o L f.e.9.0.7.x L d.d.p., 6.9.2.> *.1XjXjXjXfXOXO.                          ",
"                          L a.e.9.0.q.1.K s.s.w.z 6.5.,.+.aXjXjXjXjXjXhX-.O.                        ",
"                      +     k 2.9.0.9.8.3.k 4 v 5.8.>.#.dXkXjXjXkXkXjXhXhXXX;                       ",
"                      +     > 2.0.0.0.9.8.2.1.4.9.8.l +.hXjXjXfX;.tXpX;.pXXX+                       ",
"                      o +   * 1.q.0.0.9.9.0.0.0.0.8.l f $X&XpXpXa #X%X; %XXX+                       ",
"                      o @ @ * 2.9.0.0.0.9.0.0.0.0.7.x > + ; OXpXO.$XiXf iXXX+                       ",
"                      + o   > 1.q.0.0.0.0.0.0.0.0.0.5.>.> oXfXhXaXfXhXaXhXXX+                       ",
"                            > v 2.q.0.0.0.0.0.0.0.0.9.2.6 iXjXjXjXjXjXkX$X-.                        ",
"                          &   > c 4.9.0.0.0.0.0.9.5.4.>.1 $XpXpXpXpXpXaXO.                          ",
"                                  l 5.7.7.7.8.q.5.l , > # 5 a a a a a a                             ",
"                                + # j z z l l z l 3 < < < 1 1 1 < # .                               ",
"                              = % $ % > > % # . # n m n 2 2 2 2 6 $ .                               ",
"                            # 2 n n n n m n % . % n N 4 # # # # X X o                               ",
"                            . 2 m b N m k > < 6 3 b b n 3 3 3 3 4 2 < $                             ",
"                            . 4 m m N b 2 X 2 m A m m b m b M M b b 2 X                             ",
"                            . 4 b m m M 2 X 4 m m m b b b b b b b m 2 #                             ",
"                            X 2 m m N b 4 # 3 m b b b b b N N N N m 2 X                             ",
"                              1 2 m m m 2 # 2 A m b m m b b b b b m 2 X                             ",
"                                1 2 2 6 1 X 1 9 m b b b b b b m m n 1 .                             ",
"                                  X X . . . . 1 n n n n n n n n n > X .                             ",
"                                              & % % % % % % % % & X X                               ",
"                                                X X O O O O O O @ @                                 ",
"                                                                                                    ",
"                                                                                                    "
};
