/* XPM */
static char *_8480623cacd4263bf122e448663e7a5AMj4XRaQ36iRQE2S[] = {
/* columns rows colors chars-per-pixel */
"50 64 230 2 ",
"   c None",
".  c #050203",
"X  c #0B0402",
"o  c #0B0A05",
"O  c #0A0709",
"+  c #0C0C0B",
"@  c #05070B",
"#  c #140402",
"$  c #150B05",
"%  c #1C0C03",
"&  c #130D0A",
"*  c #1D0907",
"=  c #19140C",
"-  c #060B15",
";  c #181819",
":  c #0D1015",
">  c #260806",
",  c #3A0607",
"<  c #2D1B0B",
"1  c #291808",
"2  c #351D0B",
"3  c #3B1C0B",
"4  c #391B07",
"5  c #271C16",
"6  c #321B11",
"7  c #1F240E",
"8  c #292008",
"9  c #3C290B",
"0  c #2A2519",
"q  c #3A2717",
"w  c #051329",
"e  c #171826",
"r  c #071B37",
"t  c #0F162B",
"y  c #09243C",
"u  c #09263E",
"i  c #162A3B",
"p  c #1F202A",
"a  c #262728",
"s  c #322C24",
"d  c #3F3527",
"f  c #312E35",
"g  c #341125",
"h  c #450606",
"j  c #590809",
"k  c #441D07",
"l  c #640604",
"z  c #6A0708",
"x  c #790507",
"c  c #690D13",
"v  c #721611",
"b  c #4D2505",
"n  c #44240A",
"m  c #4C2509",
"M  c #462808",
"N  c #512305",
"B  c #502A09",
"V  c #463309",
"C  c #4C330B",
"Z  c #4B3406",
"A  c #482510",
"S  c #513614",
"D  c #551B22",
"F  c #4B3D2C",
"G  c #493927",
"H  c #493D32",
"J  c #4F3031",
"K  c #76380D",
"L  c #4A4811",
"P  c #55422C",
"I  c #574736",
"U  c #4D4030",
"Y  c #644C37",
"T  c #67543A",
"R  c #0D2A43",
"E  c #0B2C4C",
"W  c #092445",
"Q  c #142C48",
"!  c #163247",
"~  c #0E3357",
"^  c #173B5A",
"/  c #0F2D50",
"(  c #242C47",
")  c #2E3D54",
"_  c #293548",
"`  c #0B3966",
"'  c #163D66",
"]  c #103D70",
"[  c #343D68",
"{  c #453C51",
"}  c #2D435C",
"|  c #1B456B",
" . c #184877",
".. c #0B4076",
"X. c #224364",
"o. c #2F4F6B",
"O. c #474646",
"+. c #5A4C48",
"@. c #655847",
"#. c #744F44",
"$. c #7A664B",
"%. c #786752",
"&. c #434161",
"*. c #655F64",
"=. c #576671",
"-. c #6A6969",
";. c #777577",
":. c #656D70",
">. c #860909",
",. c #9A1618",
"<. c #8F0D11",
"1. c #A90809",
"2. c #B30707",
"3. c #A8140F",
"4. c #C80B0A",
"5. c #D40905",
"6. c #D70708",
"7. c #EB0805",
"8. c #E90706",
"9. c #F40403",
"0. c #FB0202",
"q. c #F50608",
"w. c #997B23",
"e. c #EB4C0F",
"r. c #92795A",
"t. c #846D53",
"y. c #957B61",
"u. c #8D7B60",
"i. c #B07C76",
"p. c #9D9928",
"a. c #CFB535",
"s. c #CECA30",
"d. c #F8F926",
"f. c #F1DD2E",
"g. c #A2845E",
"h. c #9C8566",
"j. c #A68968",
"k. c #B49C73",
"l. c #B59C7A",
"z. c #B69A79",
"x. c #AA8C72",
"c. c #BFA17C",
"v. c #C7A87B",
"b. c #D7AF7B",
"n. c #164E84",
"m. c #1B538C",
"M. c #1C598E",
"N. c #1C5381",
"B. c #1B5C94",
"V. c #235A8A",
"C. c #215E93",
"Z. c #1D689D",
"A. c #286698",
"S. c #346693",
"D. c #175FA1",
"F. c #1E65A6",
"G. c #1B69A8",
"H. c #1C71B9",
"J. c #2569A1",
"K. c #2677B8",
"L. c #2976B3",
"P. c #657186",
"I. c #1F77C1",
"U. c #237CC4",
"Y. c #217DCB",
"T. c #347EC1",
"R. c #9F7E82",
"E. c #3383BF",
"W. c #1F8AD9",
"Q. c #2B86CD",
"!. c #2882C7",
"~. c #2C8AD3",
"^. c #238BDB",
"/. c #2688D7",
"(. c #2C92DE",
"). c #1E98F8",
"_. c #1F92EC",
"`. c #258FE3",
"'. c #2591E3",
"]. c #2B94E5",
"[. c #2595EC",
"{. c #2994EB",
"}. c #2699ED",
"|. c #2396F3",
" X c #2399F3",
".X c #2797F3",
"XX c #949494",
"oX c #9B9A9A",
"OX c #86898D",
"+X c #B89E9A",
"@X c #BDA782",
"#X c #A0A09B",
"$X c #A7A9A7",
"%X c #BDBDBC",
"&X c #B0B3AC",
"*X c #D79B99",
"=X c #EA9192",
"-X c #CDB387",
";X c #DBBA8B",
":X c #D4B788",
">X c #D9BC93",
",X c #CCAA8D",
"<X c #E1B88C",
"1X c #C4BABA",
"2X c #F3A6AE",
"3X c #EAABAD",
"4X c #D9C197",
"5X c #EDCC95",
"6X c #EBCC9A",
"7X c #E6C796",
"8X c #F4CC94",
"9X c #F3CD9A",
"0X c #F6CB96",
"qX c #EFD199",
"wX c #F3D09A",
"eX c #F4D196",
"rX c #ECC98E",
"tX c #CFC4BF",
"yX c #F9CEA2",
"uX c #EED0A2",
"iX c #C7C8C8",
"pX c #D6D7D8",
"aX c #CED3D5",
"sX c #EDD3CC",
"dX c #DFE0DB",
"fX c #E9E6E6",
"gX c #FBEEEC",
"hX c #F4F5F4",
"jX c #FDFEFD",
"kX c #F6FBF8",
/* pixels */
"                                                                                                    ",
"                                                                                                    ",
"                                                : : + o - - -                                       ",
"                                              i E E R R E E E !                                     ",
"                                          - w | ~./././.Q.Q.Q.L.R                                   ",
"                                        / A.H.Y.[.|..XU.` E E ` A.X.                                ",
"                                      ^ M.].|.|.).[.H.S.=.-.-.=.S. .X.                              ",
"                                    y C.].|.|.[._.Q.| :.fXgXgXpX( M.J.w                             ",
"                                  y G./.|.|.|.}.W.~ OXsX3X2X2XtXf C.A.-                             ",
"                                ^ B.`.|.).|.|.).!.r oXsX*X=X*X*Xf / ^ @ +                           ",
"                              - | ].).).|.).|.^.Z.w ;.+Xi.*Xx.R.) W W y R !                         ",
"                              w  .].|.|.[.{.(.B.r - t e e a e Q K.~.~././.M.w :                     ",
"                            w M.Y.[.|..XY.] ~  .J.F.G.F.F.F.J.H.{. X|.|.|./.G.A.}                   ",
"                            ' U.|.{.[.U.M.' ` D.[.|. X X.X.X}..X|.).).|.|.|. X].^ -                 ",
"                        + R Q.[.[.[.^.n.` /.'.].|.|.`.^.^.^.W.^./.^.`././.^.W.Q.X.:                 ",
"                        & R ^. X.X/.` m.!.[.|.[.[.(.N.y u u y y u y y y W W u u _                   ",
"                        + E ^..XY.m.n.I.{.{.F. .n.| =.%.$.$.t.$.%.%.t.%.; ; ;                       ",
"                      Q W ..^.Q.M.` /.).'.K.} s s s u.>X9X9X9XwXeX;X;X4Xd :                         ",
"                    r L././.`... .!.'.].K.i x.>X;X;X@.Y 7X8X9X9X6X$.Y >Xd +                         ",
"                  ^ G._..X}.{.K.m.' ^ ^ o.h.;X8X8X6X@.H 7X8X9X<X$.5 5 I = .                         ",
"                . ' ].|.U.J.A.A.X.: & . H 7X8X8X8X6X+.H 7X8X:Xg.I F F F H H I                       ",
"                @ ' ~./.N.e ; ; 0 9 V = G ;X8X0X8X6X#.Y 7X9Xh.S -X6X7X7X7X7X-Xd                     ",
"                  ! R R :.@Xv.@X$.1 V 9 9 F v.9X0X8Xb.b.8X9X;Xv.5X0X8X0X9X8XrX@X@.=                 ",
"                    & T c.>Xg.>Xh.$ 9 C 9 & k.9X8X5X8X0X9X9X9XwX0X6X5X0X9X0X8XuX@.X                 ",
"                    = v.wXl.5 l.x.q q M 8 = k.8X5X:X-X-X-X-X-X:X5X9X9X0X8X9X7X-X@.o                 ",
"                    = v.yXl.6 z.6Xv.q $ X = z.wX:XG 5 0 6 5 5 G :X8X8X0X8XwX-XG                     ",
"                    5 ,XyX>Xj.t.j.rXj.r.y.g.<XwX-X5 & < < < 1 9 T v.wX9XwXk.@.                      ",
"                    5 j.;XeX6X$.r.8XeX9X9X0X0X9X-X8 < C B C C M 1 $.z.k.l.%.$                       ",
"                      < r.7X7X4X>X7X5X9X6X5X8X8X:Xq < V Z Z C C V < > % = 5                         ",
"                        U P F U F T ;X9X9XwXeX8XrXc.I 1 V V Z Z Z 9 1 .                             ",
"                          . . . . 5 t.y.y.y.u.l.9XqXh.P q < < < < 8 8 +                             ",
"                                    & . # > # I :X:X:Xx., # . . . . O                               ",
"                                    : . , ,.h = 0 a s D ,.h %                                       ",
"                                  _ M.m.[ c >.j :  .m.[ c >.v                                       ",
"                                ) ' /..XK.( v >.D S.~.K.( <.<.j                                     ",
"                              e X.~.[.|.{.E.f z 3.g C.(.!.( c ,.h                                   ",
"                              ; ' ].}.|.|.'./ l 6.1.J m.'.U.&.z <.c                                 ",
"                              : y V.A.!. X`./ l 8.8.j e V.A.{ >.6.1.c                               ",
"                            . ; a a i A.~.T.f x 7.5.v 8 7 & c 6.0.7.3.k                             ",
"                            : oXpXaXaXP.r p <.6.6.l w.s.s.V x 7.0.9.e.a.L                           ",
"                          O.OXfXjXjXjX1X*.> 2.q.6., p.d.d.L x 7.0.9.e.f.L o                         ",
"                        O.-.hXjXjXjXjXjXaX+.,.5.6.z w.s.s.K 1.q.0.9.e.a.L                           ",
"                      ; XXhXkXjXkXkXjXjXkXdX#.>.8.5.v 4 k 3.8.9.0.9.2.k     +                       ",
"                      + XXpX;.pXtX;.fXjXjXhX+.l 8.9.4.1.2.8.9.0.0.0.2.>     +                       ",
"                      + XX%X; %X#Xa pXpX&X$Xf l 7.0.0.0.0.9.9.0.0.q.1.*   + o                       ",
"                      + XXiXf tX$XO.pXOX; + > x 7.0.0.0.0.9.0.0.0.9.2.* @ @ o                       ",
"                      + XXkXaXhXfXaXkXfXoX> >.6.0.0.0.0.0.0.0.0.0.q.1.>   o +                       ",
"                        -.$XkXjXjXjXjXjXiX6 2.q.0.0.0.0.0.0.0.0.q.2.v >                             ",
"                          O.aXpXpXpXpXpX$X1 >.4.5.9.0.0.0.0.0.9.4.c >   &                           ",
"                            a a a a a a 5 # > , l 5.q.8.7.7.7.5.l                                   ",
"                              . $ < 1 1 1 < < < 3 l z l l z z j # +                                 ",
"                              . $ 6 2 2 2 2 n m n # . # % > > % $ $ =                               ",
"                              o X X # # # # 4 N n % . % n n n n n n 2 #                             ",
"                            $ < 2 4 3 3 3 3 n b b 3 6 2 > k m b b n 2 .                             ",
"                            X 2 b b b b b m m m m A A 2 X 2 b N m n 4 .                             ",
"                            # 2 m b b b b b b b m n m 4 X 2 M m m b 4 .                             ",
"                            X 2 m N N N N b b b b b m 3 # 4 b N b n 2 X                             ",
"                            X 2 n b b b b b m m b m A 2 # 2 m m n 2 1                               ",
"                            . 1 n n n b b b b b b n 9 1 X 1 6 2 2 <                                 ",
"                            . X > n n n M n M n n n 1 . . . . X X                                   ",
"                              X X $ % % % % % % % % $                                               ",
"                                @ @ + O O O O O X X                                                 ",
"                                                                                                    ",
"                                                                                                    "
};
