/* XPM */
static char *_75237bab72947668a1b530490750faa[] = {
/* columns rows colors chars-per-pixel */
"58 64 8 1 ",
"  c black",
". c #077100",
"X c #359900",
"o c #35993E",
"O c #68C900",
"+ c #68C957",
"@ c #91F000",
"# c #F8F8F8",
/* pixels */
"XX..XXXX..XXXXXXXXXX@@OOOOOOOOOO@@@@@@@@@@@@@@@@@@@@@@OOOO",
"..  ....  ..........OOXXXXXXXXXXOOOOOOOO@@@@@@####@@OOXXXX",
"..  ....  ..........OOXXXXXXXXXXOOOOOOOO@@@@@@####@@OOXXXX",
"..  ....  ..........OOXXXXXXXXXXOOOOOOOO@@@@@@####@@OOXXXX",
"..  ....  ..........OOXXXXXXXXXXOOOOOOOO@@@@@@####@@OOXXXX",
"..  ....  ..........OOXXXXXXXXXXOOOOOOOO@@@@@@####@@OOXXXX",
"..  ....  ..........OOXXXXXXXXXXOOOOOOOO@@@@@@####@@OOXXXX",
"..  ....  ..........OOXXXXXXXXXXOOOOOOOO@@@@@@####@@OOXXXX",
"..  ....  ..........OOXXXXXXXXXXOOOOOOOO@@@@@@####@@OOXXXX",
"..  ....  ..........OOXXXXXXXXXXOOOOOOOO@@@@@@####@@OOXXXX",
"..  ....  ..........OOXXXXXXXXXXOOOOOOOO@@@@@@####@@OOXXXX",
"..  ....  ..........OOXXXXXXXXXXOOOOOOOO@@@@@@####@@OOXXXX",
"..  ....  ..........OOXXXXXXXXXXOOOOOOOO@@@@@@####@@OOXXXX",
"..  ....  ..........OOXXXXXXXXXXOOOOOOOO@@@@@@####@@OOXXXX",
"..  ....  ..........OOXXXXXXXXXXOOOOOOOO@@@@@@####@@OOXXXX",
"..  ....  ..........OOXXXXXXXXXXOOOOOOOO@@@@@@####@@OOXXXX",
"..  ....  ..........OOXXXXXXXXXXOOOOOOOO@@@@@@####@@OOXXXX",
"..  ....  ..........OOXXXXXXXXXXOOOOOOOO@@@@@@####@@OOXXXX",
"..  ....  ..........OOXXXXXXXXXXOOOOOOOO@@@@@@####@@OOXXXX",
"..  ....  ..........OOXXXXXXXXXXOOOOOOOO@@@@@@####@@OOXXXX",
"..  ....  ..........OOXXXXXXXXXXOOOOOOOO@@@@@@####@@OOXXXX",
"..  ....  ..........OOXXXXXXXXXXOOOOOOOO@@@@@@####@@OOXXXX",
"..  ....  ..........OOXXXXXXXXXXOOOOOOOO@@@@@@####@@OOXXXX",
"..  ....  ..........OOXXXXXXXXXXOOOOOOOO@@@@@@####@@OOXXXX",
"..  ....  ..........OOXXXXXXXXXXOOOOOOOO@@@@@@####@@OOXXXX",
"                                                          ",
"                                                          ",
"                                                          ",
"                                                          ",
"  ..  ....  ..........OOXXXXXXOOOOOOOO@@@@@@####@@OOXXXX  ",
"  ..  ....  ..........OOXXXXXXOOOOOOOO@@@@@@####@@OOXXXX  ",
"  ..  ....  ..........OOXXXXXXOOOOOOOO@@@@@@####@@OOXXXX  ",
"  ..  ....  ..........OOXXXXXXOOOOOOOO@@@@@@####@@OOXXXX  ",
"  ..  ....  ..........OOXXXXXXOOOOOOOO@@@@@@####@@OOXXXX  ",
"  ..  ....  ..........OOXXXXXXOOOOOOOO@@@@@@####@@OOXXXX  ",
"  ..  ....  ..........OOXXXXXXOOOOOOOO@@@@@@####@@OOXXXX  ",
"  ..  ....  ..........OOXXXXXXOOOOOOOO@@@@@@####@@OOXXXX  ",
"  ..  ....  ..........OOXXXXXXOOOOOOOO@@@@@@####@@OOXXXX  ",
"  ..  ....  ..........OOXXXXXXOOOOOOOO@@@@@@####@@OOXXXX  ",
"  ..  ....  ..........OOXXXXXXOOOOOOOO@@@@@@####@@OOXXXX  ",
"  ..  ....  ..........OOXXXXXXOOOOOOOO@@@@@@####@@OOXXXX  ",
"  ..  ....  ..........OOXXXXXXOOOOOOOO@@@@@@####@@OOXXXX  ",
"  ..  ....  ..........OOXXXXXXOOOOOOOO@@@@@@####@@OOXXXX  ",
"  ..  ....  ..........OOXXXXXXOOOOOOOO@@@@@@####@@OOXXXX  ",
"  ..  ....  ..........OOXXXXXXOOOOOOOO@@@@@@####@@OOXXXX  ",
"  ..  ....  ..........OOXXXXXXOOOOOOOO@@@@@@####@@OOXXXX  ",
"  ..  ....  ..........OOXXXXXXOOOOOOOO@@@@@@####@@OOXXXX  ",
"  ..  ....  ..........OOXXXXXXOOOOOOOO@@@@@@####@@OOXXXX  ",
"  ..  ....  ..........OOXXXXXXOOOOOOOO@@@@@@####@@OOXXXX  ",
"  ..  ....  ..........OOXXXXXXOOOOOOOO@@@@@@####@@OOXXXX  ",
"  ..  ....  ..........OOXXXXXXOOOOOOOO@@@@@@####@@OOXXXX  ",
"  ..  ....  ..........OOXXXXXXOOOOOOOO@@@@@@####@@OOXXXX  ",
"  ..  ....  ..........OOXXXXXXOOOOOOOO@@@@@@####@@OOXXXX  ",
"  ..  ....  ..........OOXXXXXXOOOOOOOO@@@@@@####@@OOXXXX  ",
"  ..  ....  ..........OOXXXXXXOOOOOOOO@@@@@@####@@OOXXXX  ",
"  ..  ....  ..........OOXXXXXXOOOOOOOO@@@@@@####@@OOXXXX  ",
"  ..  ....  ..........OOXXXXXXOOOOOOOO@@@@@@####@@OOXXXX  ",
"  ..  ....  ..........OOXXXXXXOOOOOOOO@@@@@@####@@OOXXXX  ",
"  ..  ....  ..........OOXXXXXXOOOOOOOO@@@@@@####@@OOXXXX  ",
"  ..  ....  ..........OOXXXXXXOOOOOOOO@@@@@@####@@OOXXXX  ",
"  ..  ....  ..........OOXXXXXXOOOOOOOO@@@@@@####@@OOXXXX  ",
"                                                          ",
"                                                          ",
"                                oooooooooooooooooooooooo++"
};
